<svg width="56" height="55" viewBox="0 0 56 55" fill="none" xmlns="http://www.w3.org/2000/svg">
<g filter="url(#filter0_d_14_47)">
<path d="M28 50C29.1046 50 30 49.1046 30 48C30 46.8954 29.1046 46 28 46C26.8954 46 26 46.8954 26 48C26 49.1046 26.8954 50 28 50Z" fill="#4ADE80"/>
<path d="M15.5 34.5H18.5V38.5H37.5V34.5H40.5V41.5H15.5V34.5Z" fill="#F8FAFC"/>
<path d="M20.2479 16H14.2975C13.2021 16 12.314 16.8954 12.314 18V24C12.314 25.1046 13.2021 26 14.2975 26H20.2479C21.3434 26 22.2314 25.1046 22.2314 24V18C22.2314 16.8954 21.3434 16 20.2479 16Z" fill="#141423"/>
<path d="M21.231 18C21.231 17.4399 20.783 17 20.2476 17H14.2974C13.7621 17 13.314 17.4399 13.314 18V24C13.314 24.5601 13.7621 25 14.2974 25H20.2476C20.783 25 21.231 24.5601 21.231 24V18ZM23.231 24C23.231 25.649 21.9032 27 20.2476 27H14.2974C12.6419 27 11.314 25.649 11.314 24V18C11.314 16.351 12.6419 15 14.2974 15H20.2476C21.9032 15 23.231 16.351 23.231 18V24Z" fill="#22D3EE"/>
<path d="M19.2562 19H15.2893V23H19.2562V19Z" fill="#22D3EE"/>
<path d="M42.0661 16H36.1157C35.0203 16 34.1322 16.8954 34.1322 18V24C34.1322 25.1046 35.0203 26 36.1157 26H42.0661C43.1616 26 44.0496 25.1046 44.0496 24V18C44.0496 16.8954 43.1616 16 42.0661 16Z" fill="#141423"/>
<path d="M43.0492 18C43.0492 17.4399 42.6012 17 42.0658 17H36.1156C35.5803 17 35.1322 17.4399 35.1322 18V24C35.1322 24.5601 35.5803 25 36.1156 25H42.0658C42.6012 25 43.0492 24.5601 43.0492 24V18ZM45.0492 24C45.0492 25.649 43.7214 27 42.0658 27H36.1156C34.4601 27 33.1322 25.649 33.1322 24V18C33.1322 16.351 34.4601 15 36.1156 15H42.0658C43.7214 15 45.0492 16.351 45.0492 18V24Z" fill="#F56BFF"/>
<path d="M41.0744 19H37.1074V23H41.0744V19Z" fill="#F56BFF"/>
<path d="M19 27V29H5V27H19ZM51 27V29H37V27H51ZM27 5H29V19H27V5Z" fill="#94A3B8"/>
</g>
<defs>
<filter id="filter0_d_14_47" x="0" y="0" width="56" height="55" filterUnits="userSpaceOnUse" color-interpolation-filters="sRGB">
<feFlood flood-opacity="0" result="BackgroundImageFix"/>
<feColorMatrix in="SourceAlpha" type="matrix" values="0 0 0 0 0 0 0 0 0 0 0 0 0 0 0 0 0 0 127 0" result="hardAlpha"/>
<feOffset/>
<feGaussianBlur stdDeviation="2.5"/>
<feComposite in2="hardAlpha" operator="out"/>
<feColorMatrix type="matrix" values="0 0 0 0 0.133333 0 0 0 0 0.827451 0 0 0 0 0.933333 0 0 0 1 0"/>
<feBlend mode="normal" in2="BackgroundImageFix" result="effect1_dropShadow_14_47"/>
<feBlend mode="normal" in="SourceGraphic" in2="effect1_dropShadow_14_47" result="shape"/>
</filter>
</defs>
</svg>
